<svg viewBox="0 0 112.2 112.2" xmlns="http://www.w3.org/2000/svg" xmlns:xlink="http://www.w3.org/1999/xlink"><style>:root&gt;svg{display:none}:root&gt;svg:target{display:block}</style><svg viewBox="0 0 34.01 34.01" id="fb" xmlns="http://www.w3.org/2000/svg"><path d="M17 34.01c9.4 0 17.01-7.61 17.01-17.01C34.01 7.61 26.4 0 17 0 7.61 0 0 7.61 0 17c0 9.4 7.61 17.01 17 17.01" fill="#4a73b9"/><path d="M12.9 14.12h1.76v-1.71c0-.75.02-1.91.56-2.63.58-.76 1.37-1.28 2.73-1.28 2.22 0 3.16.31 3.16.31l-.44 2.61s-.74-.21-1.42-.21c-.68 0-1.3.24-1.3.93v1.98h2.81l-.2 2.55h-2.61v8.84h-3.29v-8.84H12.9z" fill="#fff"/></svg><svg viewBox="0 0 34.01 34.01" id="tw" xmlns="http://www.w3.org/2000/svg"><path d="M17 34.01c9.4 0 17.01-7.61 17.01-17.01C34.01 7.61 26.4 0 17 0 7.61 0 0 7.61 0 17c0 9.4 7.61 17.01 17 17.01" fill="#70c9ec"/><path d="M25.54 12.55c-.63.28-1.31.46-2.01.55a3.49 3.49 0 001.53-1.94c-.67.41-1.42.7-2.21.85a3.5 3.5 0 00-2.56-1.1 3.493 3.493 0 00-3.4 4.29 9.945 9.945 0 01-7.2-3.65 3.471 3.471 0 001.08 4.66c-.58-.01-1.11-.17-1.59-.43v.04c0 1.7 1.21 3.11 2.81 3.43-.3.08-.6.12-.92.12-.23 0-.45-.02-.66-.06a3.49 3.49 0 003.26 2.43c-1.19.93-2.7 1.49-4.34 1.49-.28 0-.56-.01-.83-.05 1.55.99 3.38 1.57 5.36 1.57 6.43 0 9.94-5.32 9.94-9.94 0-.15 0-.3-.01-.45a7.34 7.34 0 001.75-1.81" fill="#fff"/></svg><svg viewBox="0 0 112.196 112.196" id="vk" xmlns="http://www.w3.org/2000/svg"><circle cx="56.098" cy="56.098" r="56.098" fill="#4d76a1"/><path d="M53.979 80.702h4.403s1.33-.146 2.009-.878c.625-.672.605-1.934.605-1.934s-.086-5.908 2.656-6.778c2.703-.857 6.174 5.71 9.853 8.235 2.782 1.911 4.896 1.492 4.896 1.492l9.837-.137s5.146-.317 2.706-4.363c-.2-.331-1.421-2.993-7.314-8.463-6.168-5.725-5.342-4.799 2.088-14.702 4.525-6.031 6.334-9.713 5.769-11.29-.539-1.502-3.867-1.105-3.867-1.105l-11.076.069s-.821-.112-1.43.252c-.595.357-.978 1.189-.978 1.189s-1.753 4.667-4.091 8.636c-4.932 8.375-6.904 8.817-7.71 8.297-1.875-1.212-1.407-4.869-1.407-7.467 0-8.116 1.231-11.5-2.397-12.376-1.204-.291-2.09-.483-5.169-.514-3.952-.041-7.297.012-9.191.94-1.26.617-2.232 1.992-1.64 2.071.732.098 2.39.447 3.269 1.644 1.135 1.544 1.095 5.012 1.095 5.012s.652 9.554-1.523 10.741c-1.493.814-3.541-.848-7.938-8.446-2.253-3.892-3.954-8.194-3.954-8.194s-.328-.804-.913-1.234c-.71-.521-1.702-.687-1.702-.687l-10.525.069s-1.58.044-2.16.731c-.516.611-.041 1.875-.041 1.875s8.24 19.278 17.57 28.993c8.555 8.907 18.27 8.322 18.27 8.322z" fill-rule="evenodd" clip-rule="evenodd" fill="#fff"/></svg></svg>